<svg width="26" height="26" viewBox="0 0 26 26" fill="none" xmlns="http://www.w3.org/2000/svg">
<g clip-path="url(#clip0_289_68)">
<path d="M15.9727 7.50732V0.866699H6.20703C5.55762 0.866699 5.03516 1.38916 5.03516 2.03857V13.3667H2.30078C2.08594 13.3667 1.91016 13.5425 1.91016 13.7573V14.5386C1.91016 14.7534 2.08594 14.9292 2.30078 14.9292H9.18066C9.32715 14.9292 9.46387 15.0122 9.53223 15.144L10.5039 17.0874L13.2773 11.5356C13.4189 11.2476 13.834 11.2476 13.9756 11.5356L15.6699 14.9292H19.0977C19.5273 14.9292 19.8789 15.2808 19.8789 15.7104C19.8789 16.1401 19.5273 16.4917 19.0977 16.4917H14.708L13.6289 14.3335L10.8555 19.8853C10.7139 20.1733 10.2988 20.1733 10.1572 19.8853L8.45801 16.4917H5.03516V24.6948C5.03516 25.3442 5.55762 25.8667 6.20703 25.8667H22.6133C23.2627 25.8667 23.7852 25.3442 23.7852 24.6948V8.6792H17.1445C16.5 8.6792 15.9727 8.15186 15.9727 7.50732ZM23.4434 5.99365L18.6631 1.2085C18.4434 0.98877 18.1455 0.866699 17.833 0.866699H17.5352V7.1167H23.7852V6.81885C23.7852 6.51123 23.6631 6.21338 23.4434 5.99365Z" fill="white"/>
</g>
<defs>
<clipPath id="clip0_289_68">
<rect width="25" height="25" fill="white" transform="translate(0.347656 0.866699)"/>
</clipPath>
</defs>
</svg>
